# xmcd
# Copyright (C) 1995-1998 Ti Kan
#
# Track frame offsets:
#       183
#       23865
#       57513
#       77095
#       92863
#       114388
#       133338
#       157058
#       184643
#       226823
#       264613
#       296793
#
# Disc length: 4347 seconds
#
# Revision: 0
# Processed by: cddbd v1.5.2PL0 Copyright (c) Steve Scherf et al.
# Submitted via: CD-Import v1.0
#
DISCID=ab10f90c
DTITLE=Cure - Disintegration
DYEAR=1989
DGENRE=
TTITLE0=Plainsong
TTITLE1=Pictures Of You
TTITLE2=Closedown
TTITLE3=Lovesong
TTITLE4=Last Dance
TTITLE5=Lullaby
TTITLE6=Fascination Street
TTITLE7=Prayers For Rain
TTITLE8=The Same Deep Water As You
TTITLE9=Disintegration
TTITLE10=Homesick
TTITLE11=Untitled
EXTD=
EXTT0=
EXTT1=
EXTT2=
EXTT3=
EXTT4=
EXTT5=
EXTT6=
EXTT7=
EXTT8=
EXTT9=
EXTT10=
EXTT11=
PLAYORDER=
